<svg width="64" height="64" viewBox="0 0 64 64" xmlns="http://www.w3.org/2000/svg">
  <defs>
    <linearGradient id="g" x1="0" y1="0" x2="64" y2="64" gradientUnits="userSpaceOnUse">
      <stop offset="0" stop-color="#6366f1"/>
      <stop offset="0.55" stop-color="#8b5cf6"/>
      <stop offset="1" stop-color="#38bdf8"/>
    </linearGradient>
  </defs>
  <rect width="64" height="64" rx="15" fill="url(#g)"/>
  <g stroke="#232c44" stroke-width="2.2" stroke-linejoin="round">
    <path d="M20 26 L18 14 L29 21 Z" fill="#fff"/>
    <path d="M44 26 L46 14 L35 21 Z" fill="#fff"/>
    <path d="M12 42 C12 28 22 21 32 21 C42 21 52 28 52 42 L52 45 C52 49 49 51 45 51 L19 51 C15 51 12 49 12 45 Z" fill="#fff"/>
  </g>
  <circle cx="25" cy="36" r="2.1" fill="#232c44"/>
  <circle cx="39" cy="36" r="2.1" fill="#232c44"/>
  <path d="M29 40 q3 3.4 6 0" fill="none" stroke="#232c44" stroke-width="1.6" stroke-linecap="round"/>
  <rect x="18" y="46" width="13" height="9" rx="4.5" fill="#f6a5c0" stroke="#232c44" stroke-width="2"/>
  <rect x="33" y="46" width="13" height="9" rx="4.5" fill="#f6a5c0" stroke="#232c44" stroke-width="2"/>
</svg>
